<svg width="40" height="40" xmlns="http://www.w3.org/2000/svg">
 <style type="text/css">.st0{fill:none;stroke:#979797;stroke-width:2;stroke-linecap:round;}</style>

 <title>Code</title>
 <desc>Created with Sketch.</desc>
 <g>
  <title>background</title>
  <rect fill="none" id="canvas_background" height="402" width="582" y="-1" x="-1"/>
 </g>
 <g>
  <title>Layer 1</title>
  <g id="Code">
   <g id="code">
    <path d="m23,10l-6,21" class="st0" id="Path-8"/>
    <path d="m14.5,26.5c-2.8,-1.2 -5.6,-2.3 -8.4,-3.5c-1.8,-0.8 -2.3,-3 -0.3,-3.9c1.4,-0.7 2.9,-1.2 4.3,-1.8c1.5,-0.6 2.9,-1.2 4.4,-1.8" class="st0" id="Triangle-4"/>
    <path d="m26.5,15.5c2.8,1.2 5.6,2.3 8.4,3.5c1.8,0.8 2.3,3 0.3,3.9c-1.4,0.7 -2.9,1.2 -4.3,1.8c-1.5,0.6 -2.9,1.2 -4.4,1.8" class="st0" id="Triangle-4_1_"/>
   </g>
  </g>
 </g>
</svg>
