<svg width="366" height="191" xmlns="http://www.w3.org/2000/svg">
 <!-- Generator: Sketch 49.1 (51147) - http://www.bohemiancoding.com/sketch -->
 <title>fizz unfold</title>
 <desc>Created with Sketch.</desc>

 <g>
  <title>background</title>
  <rect fill="none" id="canvas_background" height="402" width="582" y="-1" x="-1"/>
 </g>
 <g>
  <title>Layer 1</title>
  <g fill-rule="evenodd" fill="none" id="fizz-unfold">
   <g id="Group">
    <path id="Path-11" d="m125.762978,43l-65.762978,0l0,63l0,43" stroke-opacity="0.5" stroke-linecap="null" stroke-linejoin="null" stroke-width="20" stroke="#8137DE" fill-opacity="null" fill="null"/>
    <path stroke-width="20" stroke="#FF7AC3" stroke-opacity="0.499774" id="Path-12" d="m104,94.05897c-4.39588,0.00858 -10.22921,0.00858 -17.5,0c-7.27079,-0.00857 -12.10334,-0.02823 -14.49766,-0.05897l-21.00234,0.05897l53,0z"/>
    <path id="Oval-8" d="m134.685593,99l4.314407,-4l-4.5,-4l-4.5,4" stroke-opacity="0.5" stroke-linecap="round" stroke-linejoin="round" stroke-width="15" stroke="#7349F8" fill-opacity="null" fill="null"/>
    <path id="Path-13" d="m134,114l0,13.802818l0,11.830986l0,9.366196" stroke-opacity="0.5" stroke-linecap="null" stroke-linejoin="null" stroke-width="20" stroke="#4004FF" fill-opacity="null" fill="null"/>
    <path stroke-width="20" stroke="#B384FF" stroke-opacity="0.5" id="Path-14" d="m170,94c31,0 48,0 51,0c4.5,0 -45.5,45 -41.5,45c2.66667,0 19.5,0 50.5,0"/>
    <path stroke-width="20" stroke="#8B00FF" stroke-opacity="0.5" id="Path-14" d="m255,94c31,0 48,0 51,0c4.5,0 -45.5,45 -41.5,45c2.66667,0 19.5,0 50.5,0"/>
   </g>
  </g>
 </g>
</svg>