<?xml version="1.0" encoding="utf-8"?>
<!-- Generator: Adobe Illustrator 22.0.1, SVG Export Plug-In . SVG Version: 6.00 Build 0)  -->
<svg version="1.1" id="레이어_1" xmlns="http://www.w3.org/2000/svg" xmlns:xlink="http://www.w3.org/1999/xlink" x="0px"
	 y="0px" viewBox="0 0 366 191" enable-background="new 0 0 366 191" xml:space="preserve">
<g>
	<path opacity="0.5" fill="none" stroke="#8137DE" stroke-width="20" stroke-miterlimit="10" d="
		M125.1,43.5c-3.6,0-7.1,0-10.7,0c-7.7,0-15.5,0-23.2,0c-7.6,0-15.1,0-22.7,0c-2.4,0-4.7,0-7.1,0c-0.4,0-1.9-0.2-2.1,0.1
		c-0.1,0.2,0,1,0,1.3c0,0.9,0,1.8,0,2.7c0,2.9,0,5.7,0,8.6c0,7.9,0,15.9,0,23.8c0,7,0,14.1,0,21.1c0,2.4,0,4.9,0,7.3
		c0,6.9,0,13.8,0,20.6c0,6.5,0,12.9,0,19.4c0,0.4,0,0.7,0,1.1"/>
	<path opacity="0.4998" fill="none" stroke="#FF7AC3" stroke-width="20" stroke-miterlimit="10" d="
		M102.3,94.6c-10.4,0-20.8,0.1-31.2-0.1c-5.1-0.1-10.1,0-15.2,0c-2.2,0-4.4,0-6.6,0c6,0,12,0,17.9,0c9.5,0,19,0,28.5,0
		C97.9,94.6,100.1,94.6,102.3,94.6z"/>
	
		<path opacity="0.5" fill="none" stroke="#7349F8" stroke-width="15" stroke-linecap="round" stroke-linejoin="round" stroke-miterlimit="10" d="
		M134,99.5c1.4-1.3,2.9-2.7,4.3-4c-0.8-0.7-1.5-1.3-2.2-2c-0.5-0.5-1-0.9-1.5-1.4c-0.1-0.1-0.5-0.6-0.7-0.6c-0.1,0-0.5,0.5-0.6,0.6
		c-0.5,0.5-1.1,0.9-1.6,1.4c-0.8,0.7-1.5,1.3-2.2,2C130.9,96.8,132.4,98.2,134,99.5z"/>
	<path opacity="0.5" fill="none" stroke="#4004FF" stroke-width="20" stroke-miterlimit="10" d="
		M133.3,114.5c0,4.6,0,9.2,0,13.8c0,4.2,0,8.4,0,12.7c0,2.8,0,5.7,0,8.5"/>
	<path opacity="0.5" fill="none" stroke="#B384FF" stroke-width="20" stroke-miterlimit="10" d="
		M170.3,94.5c3.9,0,7.8,0,11.6,0c7.6,0,15.2,0,22.8,0c5.1,0,10.2,0,15.3,0c0.7,0,1.4,0,2,0.6c1,1,0.6,2.3-0.3,3.1
		c-1.1,1-2.3,2-3.4,3.1c-4.9,4.4-9.8,8.9-14.8,13.3c-5.5,4.9-11,9.9-16.5,14.8c-1.8,1.6-3.7,3.3-5.5,4.9c-0.8,0.7-2.2,1.6-2.5,2.7
		c-0.7,2.7,2.4,2.5,4,2.5c2.5,0,5.1,0,7.6,0c7.5,0,15,0,22.5,0c5.4,0,10.9,0,16.3,0c0.3,0,0.6,0,0.9,0"/>
	<path opacity="0.5" fill="none" stroke="#6200FF" stroke-width="20" stroke-miterlimit="10" d="
		M258.3,94.5c3.9,0,7.8,0,11.6,0c7.6,0,15.2,0,22.8,0c5.1,0,10.2,0,15.3,0c0.7,0,1.4,0,2,0.6c1,1,0.6,2.3-0.3,3.1
		c-1.1,1-2.3,2-3.4,3.1c-4.9,4.4-9.8,8.9-14.8,13.3c-5.5,4.9-11,9.9-16.5,14.8c-1.8,1.6-3.7,3.3-5.5,4.9c-0.8,0.7-2.2,1.6-2.5,2.7
		c-0.7,2.7,2.4,2.5,4,2.5c2.5,0,5.1,0,7.6,0c7.5,0,15,0,22.5,0c5.4,0,10.9,0,16.3,0c0.3,0,0.6,0,0.9,0"/>
</g>
</svg>
