<svg width="366" height="191" xmlns="http://www.w3.org/2000/svg">
    <g stroke="#979797" id="Group" stroke-linecap="round" fill-rule="evenodd" fill="none">
        <path stroke-width="12" id="Path-11" d="m116.237021,59.386588c-28.333333,-23.345912 -49,-27.352202 -62,-12.018868c-10.094234,11.906019 -12.723389,32.872936 -7.887465,62.900751c1.338885,8.313573 4.634707,22.346656 9.887465,42.099249"/>
        <path stroke-width="12" id="Path-12" d="m102,90.249996c-5.777778,3.666667 -16.444444,4.833333 -32,3.5c-4.420211,-0.378875 -10.419432,-1.565199 -17.997664,-3.558972c-3.837588,-1.009638 -10.505034,-2.989981 -20.002336,-5.941028"/>
        <path stroke-width="6" id="Oval-8" d="m145.685592,107.249996c1.089215,0 5.314408,-1.451208 5.314408,-2.909091c0,-1.457883 -4.496567,-5.090909 -5.58806,-5.090909c-1.091493,0 -2.41194,3.633026 -2.41194,5.090909c0,1.457883 1.596376,2.909091 2.685592,2.909091z"/>
        <path stroke-width="12" id="Path-13" d="m133,117.249996c-3.333333,2.666667 -5,8 -5,16c0,4.626133 1.018764,8.573091 3.056291,11.840873c1.333217,2.138211 4.314453,4.691253 8.943709,7.659127"/>
        <path stroke-width="12" id="Path-14" d="m184,94.077972c6.986351,-9.5 51.013649,-18.664488 51.013649,0c-3.013649,31.335512 -54.013649,14.499999 -50,45c3.986351,10.335512 37.986351,22.5 57.986351,2.5"/>
        <path stroke-width="12" id="Path-14" d="m275,94.077972c6.986351,-9.5 51.013649,-18.664488 51.013649,0c-3.013649,31.335512 -54.013649,14.499999 -50,45c3.986351,10.335512 37.986351,22.5 57.986351,2.5"/>
    </g>
ø</svg>
