<svg width="40" height="40" xmlns="http://www.w3.org/2000/svg">

 <g>
  <title>background</title>
  <rect fill="none" id="canvas_background" height="402" width="582" y="-1" x="-1"/>
 </g>
 <g>
  <title>Layer 1</title>
  <g fill-rule="evenodd" fill="none" id="Glass">
   <g id="glass">
    <!--<path id="Oval-5" d="m7,16c0,-4.972376 4.027624,-9 9,-9c4.972376,0 9,4.027624 9,9c0,4.972376 -4.027624,9 -9,9c-4.972376,0 -9,-4.027624 -9,-9z" stroke-opacity="null" stroke-linecap="null" stroke-linejoin="null" stroke-width="2" stroke="#979797" fill-opacity="null" fill="null"/>-->
    <!--<path stroke-linecap="round" stroke-width="2" stroke="#979797" id="Line-2" d="m25.5,25.5l8,8"/>-->
    <path stroke-linecap="round" stroke="#979797" id="Oval-6" d="m20.067567,11.589187c-1.069246,-0.986532 -2.498028,-1.589187 -4.067567,-1.589187"/>
    <path id="Oval-7" d="m20.5,13.5c0,-0.552486 0.447514,-1 1,-1c0.552486,0 1,0.447514 1,1c0,0.552486 -0.447514,1 -1,1c-0.552486,0 -1,-0.447514 -1,-1z" stroke-opacity="null" stroke-linecap="null" stroke-linejoin="null" stroke-width="null" stroke="null" fill-opacity="null" fill="#979797"/>
   </g>
  </g>
 </g>
</svg>
