<svg width="40" height="40" xmlns="http://www.w3.org/2000/svg">

 <g>
  <title>background</title>
  <rect fill="none" id="canvas_background" height="402" width="582" y="-1" x="-1"/>
 </g>
 <g>
  <title>Layer 1</title>
  <g fill-rule="evenodd" fill="none" id="Image">
   <g stroke-width="2" stroke="#979797" id="image">
    <path id="Rectangle-11" d="m7,12c0,-1.086758 0.913242,-2 2,-2l22,0c1.086758,0 2,0.913242 2,2l0,16c0,1.086758 -0.913242,2 -2,2l-22,0c-1.086758,0 -2,-0.913242 -2,-2l0,-16z" stroke-opacity="null" stroke-linecap="null" stroke-linejoin="null" stroke-width="null" stroke="null" fill-opacity="null" fill="null"/>
    <path id="Combined-Shape" d="m32.933325,30l-8.942526,0l-16.990799,0l0,-4.911718l5.365515,-5.400782l5.365515,3.75l8.942525,-8.4375l6.326445,6.170065" stroke-opacity="null" stroke-linecap="round" stroke-linejoin="round" stroke-width="null" stroke="null" fill-opacity="null" fill="null"/>
    <path id="Oval-4" d="m12,15.5c0,-1.381215 1.118785,-2.5 2.5,-2.5c1.381215,0 2.5,1.118785 2.5,2.5c0,1.381215 -1.118785,2.5 -2.5,2.5c-1.381215,0 -2.5,-1.118785 -2.5,-2.5z" stroke-opacity="null" stroke-linecap="null" stroke-linejoin="null" stroke-width="null" stroke="null" fill-opacity="null" fill="null"/>
   </g>
  </g>
 </g>
</svg>