<svg width="40" height="40" xmlns="http://www.w3.org/2000/svg">

 <g>
  <title>background</title>
  <rect fill="none" id="canvas_background" height="402" width="582" y="-1" x="-1"/>
 </g>
 <g>
  <title>Layer 1</title>
  <g fill-rule="evenodd" fill="none" id="Lock">
   <g stroke-width="3" stroke="#979797" id="lock">
    <path id="Rectangle-2" d="m7,20c0,-1.086758 0.913242,-2 2,-2l22,0c1.086758,0 2,0.913242 2,2l0,11c0,1.086758 -0.913242,2 -2,2l-22,0c-1.086758,0 -2,-0.913242 -2,-2l0,-11z" stroke-opacity="null" stroke-linecap="null" stroke-linejoin="null" stroke-width="null" stroke="null" fill-opacity="null" fill="null"/>
    <path id="Combined-Shape" d="m18,27.23611c-0.61375,-0.54932 -1,-1.34761 -1,-2.23611c0,-1.65685 1.34315,-3 3,-3c1.65685,0 3,1.34315 3,3c0,0.8885 -0.38625,1.68679 -1,2.23611l0,0.76389c0,1.10457 -0.89543,2 -2,2c-1.10457,0 -2,-0.89543 -2,-2l0,-0.76389z"/>
    <path stroke-linejoin="round" stroke-linecap="round" id="Rectangle-18" d="m11,18l0.00002,-5.63422c0,-0.40455 0.08182,-0.80491 0.24054,-1.17701c1.19111,-2.79251 4.11093,-4.18877 8.75944,-4.18877c4.64854,0 7.56837,1.39627 8.75948,4.18882l-0.00001,0c0.15871,0.37211 0.24053,0.77246 0.24053,1.177l0,1.78803"/>
   </g>
  </g>
 </g>
</svg>
